/* XPM */
static char *kile[] = {
/* columns rows colors chars-per-pixel */
"32 32 138 2",
"   c black",
".  c #015FBC",
"X  c #1067BE",
"o  c #005DC0",
"O  c #0063C3",
"+  c #006BC9",
"@  c #0A6EC9",
"#  c #0071CC",
"$  c #0E76CE",
"%  c #0076D0",
"&  c #007BD2",
"*  c #0978D0",
"=  c #1467C0",
"-  c #1468C1",
";  c #136FC9",
":  c #1A6AC1",
">  c #1372CA",
",  c #1C7BCE",
"<  c #1B7DD0",
"1  c #267ACD",
"2  c #2878C6",
"3  c #2C7ECE",
"4  c #207ED0",
"5  c #3D7BC1",
"6  c #3F83BB",
"7  c #0080D6",
"8  c #0086DA",
"9  c #008ADC",
"0  c #0A85D8",
"q  c #0C8BDB",
"w  c #1A81D2",
"e  c #2F81D0",
"r  c #2B89D4",
"t  c #2A98D9",
"y  c #3D80C2",
"u  c #3D8ACB",
"i  c #328BD5",
"p  c #3985D0",
"a  c #3A89D3",
"s  c #3D90CF",
"d  c #3296DC",
"f  c #3D92D0",
"g  c #399CDF",
"h  c #399EE0",
"j  c #20A0E4",
"k  c #4981C2",
"l  c #468DD3",
"z  c #4C8DD2",
"x  c #4891D6",
"c  c #518EC8",
"v  c #5C8EC5",
"b  c #5B9ECF",
"n  c #5493D5",
"m  c #519CD1",
"M  c #549ADA",
"N  c #5D98D7",
"B  c #5F9AD8",
"V  c #4FA2DF",
"C  c #53A0DD",
"Z  c #5BA4D2",
"A  c #5BA3DE",
"S  c #40A7E4",
"D  c #4DA4E1",
"F  c #53A9E3",
"G  c #629CD9",
"H  c #7999C3",
"J  c #6DA2DB",
"K  c #79A8CD",
"L  c #71A5DC",
"P  c #73A8DD",
"I  c #7AABDE",
"U  c #6DADE2",
"Y  c #63B2E6",
"T  c #77AEE1",
"R  c #75B4E5",
"E  c #7EB3E3",
"W  c #79BAE8",
"Q  c #829DC4",
"!  c #82A2C7",
"~  c #82A7CA",
"^  c #89B6D8",
"/  c #88BCDF",
"(  c #92A6C5",
")  c #92AECA",
"_  c #91B3CF",
"`  c #96B6D0",
"'  c #9BBCD5",
"]  c #84B2E1",
"[  c #8EB7E3",
"{  c #8EBBE5",
"}  c #92BAE5",
"|  c #98BEE6",
" . c #A1BED5",
".. c #B6B6C5",
"X. c #87C9EF",
"o. c #95C2E9",
"O. c #9CC0E7",
"+. c #9AC5EA",
"@. c #ADC2D6",
"#. c #BEC1CF",
"$. c #B2C2D4",
"%. c #B6C4DA",
"&. c #BDC8D7",
"*. c #A4C5E9",
"=. c #A1C8E3",
"-. c #ABCBEB",
";. c #AAD0EF",
":. c #AAD3F0",
">. c #B1CDEC",
",. c #B5D0ED",
"<. c #BDD5ED",
"1. c #B7D6F1",
"2. c #B4D8F2",
"3. c #BBD7F0",
"4. c #BFE6F9",
"5. c #C0C9D7",
"6. c #C1CCDD",
"7. c #C0D6EF",
"8. c #C6DBEC",
"9. c #C8D2E0",
"0. c #C0D7F0",
"q. c #C3DAF0",
"w. c #C9DDF2",
"e. c #D1DEEC",
"r. c #C6E8FA",
"t. c #CDE0F3",
"y. c #D2E3F4",
"u. c #D4EBF9",
"i. c #DBE8F6",
"p. c #DBEDF9",
"a. c #E1ECF7",
"s. c #E5EEF8",
"d. c #E6F1F9",
"f. c #E9F3FB",
"g. c #F1F6FB",
"h. c #F6F9FD",
"j. c #FEFEFE",
"k. c None",
/* pixels */
"k.k.k.k.k.k.k.k.k.k.k.k.k.k.k.k.k.k.k.k.k.k.k.k.k.k.k.k.k.k.k.k.",
"k.k.k.k.k.k.k.k.k.k.k.k.k.k.k.k.k.k.k.k.k.k.k.k.k.k.k.k.k.k.k.k.",
"k.k.k.k.k.k.k.k.k.k.k... .%.&.&.&.&.@.' ....k.k.k.k.k.k.k.k.k.k.",
"k.k.k.k.k.k.k.k.k.....9.r.p.f.f.f.f.u.4.<.$...k.k.k.k.k.k.k.k.k.",
"k.k.k.k.k.k.k...#.e.s.s.s.s.s.s.f.d.s.s.d.s.8.%.....k.k.k.k.k.k.",
"k.k.k.k.k.k...6.e.i.i.i.i.i.i.i.i.i.i.i.i.i.p.y.=.` k.k.k.k.k.k.",
"k.k.k.k.k...6.t.y.w.w.y.y.w.w.y.t.t.t.y.t.w.y.w.w.X._ ..k.k.k.k.",
"k.k.k.k...%.7.7.q.8.0.8.7.w.w.0.7.w.q.7.8.q.7.8.8.3./ ..k.k.k.k.",
"k.k.k...^ 1.y.t.t.<.>.,.>.7.w.y.i.y.y.0.>.>.>.1.>.1.+.j ..k.k.k.",
"k.k.k...Y s.j.j.j.w.-.-.-.-.g.j.j.j.s.>.>.-.>.-.-.-.*.S Z ..k.k.",
"k.k._ t R i.j.j.j.7.*.| *.i.j.j.j.g.>.*.O.O.| | | O.| F t ) k.k.",
"k.k.K q U i.j.j.j.>.} } 7.h.j.j.h.0.| } } } } } } } } D 9 K k.k.",
"k...m 9 C y.j.j.j.-.^ O.h.j.j.h.>.] ] ] ^ ] ] } -.=.o.W 9 9 ..k.",
"k...8 8 d t.j.j.j.*.[ s.j.j.h.q.] ] ] ] I I ] w.j.a.O.f.q 8 N ..",
"..~ 7 7 0 2.j.j.j.*.y.j.j.j.>.^ ] I I G J J | f.-.y.C r.h 7 s ..",
"..f 7 7 7 :.j.j.j.i.j.j.j.i.I P L L G G G G | s.] 8.d u.h 7 s ..",
"..f & & & :.j.j.j.j.j.j.j.s.J G G N N n n n L s.y.i.y.p.& & f ..",
"..u & & & :.j.j.j.j.j.j.j.j.<.G n n n n l z l U i.j.y.D & & u ..",
"..u % % % -.j.j.j.q.o.h.j.j.h.*.z z l p e < * % % % % % % % u ..",
"..u # % # :.j.j.j.F w 1.j.j.j.g.M 1 , $ r +.:.:.:.:.-.:.# % u ..",
"k...# # # -.j.j.j.C # < p.j.j.j.y.i # # r ,.t.q.q.t.q.t.# # u ..",
"k.k.c + # -.j.j.j.M + + B d.j.j.j.;.+ + # < < < w < < < + + ! ..",
"k.k.H + + -.j.j.j.M + + @ T j.j.j.j.] @ , E a E { { { { + H k.k.",
"k.k.( 2 O -.j.j.j.M + O + @ 7.j.j.j.s.x a s.P s.j.h.j.j.+ H k.k.",
"k.k...v O 1 a p p ; O O O + ; a a a a 3 O O O O O O O O 5 6 k.k.",
"k.k.k...O O o . O o o O o o O + O + O O O o O O O O O o ....k.k.",
"k.k.k.k...5 . o o . o o o O O + O O o o . o o o . o - Q k.k.k.k.",
"k.k.k.k...Q o o o o o o o o o o o o o o o o o o . o Q ..k.k.k.k.",
"k.k.k.k.k.k.Q 5 o o o o o o o o o o o o o o o o 5 Q k.k.k.k.k.k.",
"k.k.k.k.k.k.....= o o o o o o o o o o o o o o . ....k.k.k.k.k.k.",
"k.k.k.k.k.k.k.k.....Q 5 o o o o o o o o - : ....k.k.k.k.k.k.k.k.",
"k.k.k.k.k.k.k.k.k.k.....k H H H H H H k 5 ..k.k.k.k.k.k.k.k.k.k."
};
