/* XPM */
static char *kile[] = {
/* columns rows colors chars-per-pixel */
"32 32 13 1",
"  c black",
". c #191919",
"X c #00007F",
"o c #007F7F",
"O c gray50",
"+ c blue",
"@ c cyan",
"# c gray60",
"$ c #B2B2B2",
"% c gray80",
"& c gray90",
"* c gray100",
"= c None",
/* pixels */
"================================",
"================================",
"===========$%$%%%%%$%$==========",
"=========%$%&&&&&&&&%%$=========",
"=======$%%&&&&&&&&&&&&@%%$======",
"======%%%&&&&%&&&&&&&&&%%$======",
"=====$%&&%&*%%&%%%%&&%&%%@$$====",
"====$%%%%%&@%%%%%%@&&%%%%&$%====",
"===%$%%&&%%@%%%&&&%%%$$%%%%@$===",
"===$#&&&&%%&$%&&&&&%@%$%$%%$#$==",
"==$@$&**&%%$%&***&%$%%$$$$$+@$==",
"==$+@&***%$@%&**&&$@$$$@@$$@+$==",
"=%@+$&***%@%&*&*%$$$###$%$%@o@$=",
"=$o@@&**&%$&**&%@$#@@##%&&%&@+#$",
"%$+++%&**%%***%$$$####$*%%$&@oo%",
"$o@oo&***&&**&$@@$@+#@$&@%+%#@+%",
"%#o++%*******&#@#@#+$@$&&&&&++@$",
"$+@@@%*******&$#+$@$+#+%&&&oo@O$",
"$@+oo%***%%****%#$#+@o@+o@+@+o#$",
"%+@o+%***@+%***&@+@o+%$%%%%%@@+$",
"=%o+@$&**+o@&&&*%++@O%%&%%&&o+@%",
"==$oo%***#o+@&***&ooo+@++o@++o$$",
"==$++&**&#o+@$****$+@$@$%@$$+#==",
"==#@o%**&#o@+o%&**&@+*#&****@#==",
"==$#+@#o#+o@o++#@O@#@+ooo++@oO==",
"===%o+o+o+o++oo@+o++oo++ooo+%%==",
"====%o@++@ooooo+o+@o+o@o++o#====",
"====%$+ooo++@++o+o+o+o+oo@$%====",
"======$oo+o@o++oo@o+@o+++#======",
"======%%o+o++o@oo++o+ooo%%======",
"========%$$+oo++o+ooo+$%========",
"==========%$@$##$@##o%=========="
};
