<?xml version="1.0" encoding="UTF-8" standalone="no"?>
<!DOCTYPE svg PUBLIC "-//W3C//DTD SVG 20010904//EN"
"http://www.w3.org/TR/2001/REC-SVG-20010904/DTD/svg10.dtd">
<!-- Created with Inkscape (http://www.inkscape.org/) -->
<svg
   id="svg1"
   sodipodi:version="0.32"
   inkscape:version="0.40cvs"
   width="210mm"
   height="297mm"
   sodipodi:docbase="/home/huftis/dokument"
   sodipodi:docname="hi-kile.svg"
   xmlns="http://www.w3.org/2000/svg"
   xmlns:cc="http://web.resource.org/cc/"
   xmlns:inkscape="http://www.inkscape.org/namespaces/inkscape"
   xmlns:sodipodi="http://sodipodi.sourceforge.net/DTD/sodipodi-0.dtd"
   xmlns:rdf="http://www.w3.org/1999/02/22-rdf-syntax-ns#"
   xmlns:xml="http://www.w3.org/XML/1998/namespace"
   xmlns:dc="http://purl.org/dc/elements/1.1/"
   xmlns:xlink="http://www.w3.org/1999/xlink">
  <defs
     id="defs3">
    <linearGradient
       id="linearGradient4238">
      <stop
         style="stop-color:#dfdff5;stop-opacity:1.0000000;"
         offset="0.0000000"
         id="stop4239" />
      <stop
         style="stop-color:#a4a4ed;stop-opacity:1.0000000;"
         offset="1.0000000"
         id="stop4241" />
    </linearGradient>
    <linearGradient
       id="linearGradient4181">
      <stop
         style="stop-color:#faceb4;stop-opacity:1.0000000;"
         offset="0.0000000"
         id="stop4182" />
      <stop
         style="stop-color:#faceb4;stop-opacity:1.0000000;"
         offset="0.46000001"
         id="stop4183" />
      <stop
         style="stop-color:#ce875c;stop-opacity:1.0000000;"
         offset="1.0000000"
         id="stop4184" />
    </linearGradient>
    <linearGradient
       id="linearGradient4138">
      <stop
         style="stop-color:#fbc188;stop-opacity:1.0000000;"
         offset="0.0000000"
         id="stop4139" />
      <stop
         style="stop-color:#fa7e04;stop-opacity:1.0000000;"
         offset="0.46000001"
         id="stop4145" />
      <stop
         style="stop-color:#8a3a04;stop-opacity:1.0000000;"
         offset="1.0000000"
         id="stop4140" />
    </linearGradient>
    <linearGradient
       inkscape:collect="always"
       xlink:href="#linearGradient4138"
       id="linearGradient4147"
       x1="0.39534885"
       y1="0.50000000"
       x2="0.55038762"
       y2="0.65625000" />
    <linearGradient
       inkscape:collect="always"
       xlink:href="#linearGradient4181"
       id="linearGradient4186"
       x1="0.015037594"
       y1="0.15625000"
       x2="0.56390977"
       y2="0.81250000" />
    <linearGradient
       inkscape:collect="always"
       xlink:href="#linearGradient4238"
       id="linearGradient4237"
       x1="0.48813561"
       y1="0.35937500"
       x2="0.48813561"
       y2="0.74218750" />
  </defs>
  <sodipodi:namedview
     id="base"
     pagecolor="#ffffff"
     bordercolor="#666666"
     borderopacity="1.0"
     inkscape:pageopacity="0.0"
     inkscape:pageshadow="2"
     inkscape:zoom="0.30699632"
     inkscape:cx="550.32859"
     inkscape:cy="605.91558"
     inkscape:window-width="1273"
     inkscape:window-height="846"
     inkscape:window-x="0"
     inkscape:window-y="0"
     inkscape:current-layer="svg1" />
  <metadata
     id="metadata4">
    <rdf:RDF
       id="RDF5">
      <cc:Work
         rdf:about=""
         id="Work6">
        <dc:format
           id="format7">image/svg+xml</dc:format>
        <dc:type
           id="type9"
           rdf:resource="http://purl.org/dc/dcmitype/StillImage" />
      </cc:Work>
    </rdf:RDF>
  </metadata>
  <g
     id="g4242"
     transform="translate(-806.1986,69.21907)"
     inkscape:export-xdpi="72.000000"
     inkscape:export-ydpi="72.000000">
    <rect
       style="fill:#ffffff;fill-opacity:1.0000000;fill-rule:evenodd;stroke:#000000;stroke-width:18.001320;stroke-linecap:round;stroke-linejoin:round;stroke-miterlimit:4.0000000;stroke-opacity:1.0000000;"
       id="rect967"
       width="539.31934"
       height="619.58813"
       x="848.04993"
       y="35.740742" />
    <path
       style="fill:#b2b2e7;fill-opacity:1.0000000;fill-rule:evenodd;stroke:#b2b2e7;stroke-width:16.500000;stroke-linecap:square;stroke-linejoin:round;stroke-miterlimit:4.0000000;stroke-opacity:1.0000000;"
       d="M 888.81846,414.79626 L 1346.6007,414.79626"
       id="path1589" />
    <path
       style="fill:#b2b2e7;fill-opacity:1.0000000;fill-rule:evenodd;stroke:#b2b2e7;stroke-width:16.500000;stroke-linecap:square;stroke-linejoin:round;stroke-miterlimit:4.0000000;stroke-opacity:1.0000000;"
       d="M 888.81846,501.17027 L 1346.6007,501.17027"
       id="path1590" />
    <path
       style="fill:#b2b2e7;fill-opacity:1.0000000;fill-rule:evenodd;stroke:#b2b2e7;stroke-width:16.500000;stroke-linecap:square;stroke-linejoin:round;stroke-miterlimit:4.0000000;stroke-opacity:1.0000000;"
       d="M 888.81846,584.66515 L 1346.6007,584.66515"
       id="path1591" />
    <path
       transform="matrix(0.522733,0.000000,0.000000,0.522733,870.6322,403.1407)"
       style="font-size:500.00000;font-style:normal;font-variant:normal;font-weight:normal;font-stretch:normal;fill:#2d3380;fill-opacity:1.0000000;stroke:none;stroke-width:1.0000000pt;stroke-linecap:butt;stroke-linejoin:miter;stroke-opacity:1.0000000;font-family:Nimbus Roman No9 L;text-anchor:start;writing-mode:lr;"
       d="M 164.42874,-527.33582 L 164.42874,-277.33582 C 164.42874,-234.83586 158.92870,-229.33581 117.42874,-226.83582 L 117.42874,-217.33582 L 263.42874,-217.33582 L 263.42874,-226.83582 C 222.42878,-228.83581 215.42874,-235.33585 215.42874,-271.83582 L 215.42874,-527.33582 L 242.42874,-527.33582 C 299.42868,-527.33582 310.42875,-518.33576 321.92874,-463.33582 L 333.92874,-463.33582 L 330.92874,-548.33582 L 48.928738,-548.33582 L 45.928738,-463.33582 L 57.928738,-463.33582 C 69.928726,-517.83576 81.428794,-527.33582 137.42874,-527.33582 L 164.42874,-527.33582"
       id="text979" />
    <path
       transform="matrix(0.522733,0.000000,0.000000,0.522733,988.0236,461.0839)"
       style="font-size:500.00000;font-style:normal;font-variant:normal;font-weight:normal;font-stretch:normal;fill:#2d3380;fill-opacity:1.0000000;stroke:none;stroke-width:1.0000000pt;stroke-linecap:butt;stroke-linejoin:miter;stroke-opacity:1.0000000;font-family:Nimbus Roman No9 L;text-anchor:start;writing-mode:lr;"
       d="M 335.92874,-301.83582 L 321.92874,-301.83582 C 296.92876,-247.83587 275.42867,-235.83582 203.92874,-235.83582 L 190.42874,-235.83582 C 165.92876,-235.83582 144.92873,-238.33582 141.42874,-241.83582 C 138.92874,-243.33581 137.92874,-248.83582 137.92874,-257.33582 L 137.92874,-380.83582 L 214.92874,-380.83582 C 255.92870,-380.83582 263.42874,-374.33577 269.92874,-332.83582 L 281.42874,-332.83582 L 281.42874,-448.83582 L 269.92874,-448.83582 C 266.42874,-428.33584 264.42873,-420.83581 258.92874,-413.83582 C 252.42874,-405.33582 238.42871,-401.33582 214.92874,-401.33582 L 137.92874,-401.33582 L 137.92874,-512.33582 C 137.92874,-526.33580 140.92875,-529.33582 154.42874,-529.33582 L 221.92874,-529.33582 C 278.42868,-529.33582 289.42875,-521.83577 297.92874,-476.83582 L 310.42874,-476.83582 L 308.92874,-548.33582 L 43.428738,-548.33582 L 43.428738,-538.83582 C 80.428701,-535.83582 86.928738,-528.83578 86.928738,-493.83582 L 86.928738,-271.83582 C 86.928738,-236.83585 79.928701,-229.33581 43.428738,-226.83582 L 43.428738,-217.33582 L 313.42874,-217.33582 L 335.92874,-301.83582"
       id="text982" />
    <path
       transform="matrix(0.522733,0.000000,0.000000,0.522733,1117.455,403.1407)"
       style="font-size:500.00000;font-style:normal;font-variant:normal;font-weight:normal;font-stretch:normal;fill:#2d3380;fill-opacity:1.0000000;stroke:none;stroke-width:1.0000000pt;stroke-linecap:butt;stroke-linejoin:miter;stroke-opacity:1.0000000;font-family:Nimbus Roman No9 L;text-anchor:start;writing-mode:lr;"
       d="M 385.42874,-548.33582 L 266.42874,-548.33582 L 266.42874,-538.83582 C 293.42871,-537.83582 301.42874,-534.33580 301.42874,-522.83582 C 301.42874,-515.33582 295.92872,-506.33580 281.42874,-488.33582 L 224.92874,-419.33582 L 203.92874,-448.83582 C 173.42877,-491.33577 161.42874,-512.83583 161.42874,-523.83582 C 161.42874,-533.83581 168.92875,-537.83582 185.42874,-538.33582 L 199.42874,-538.83582 L 199.42874,-548.33582 L 48.428738,-548.33582 L 48.428738,-538.83582 C 80.928705,-537.33582 89.928787,-529.83575 138.92874,-460.33582 L 193.42874,-380.33582 L 114.92874,-283.83582 C 70.428782,-230.83587 67.928712,-228.83581 42.428738,-226.83582 L 42.428738,-217.33582 L 158.92874,-217.33582 L 158.92874,-226.83582 C 129.92877,-228.83581 120.92874,-232.83583 120.92874,-244.33582 C 120.92874,-251.83581 128.42876,-264.33584 146.92874,-287.33582 L 206.42874,-361.33582 L 253.92874,-291.33582 C 270.42872,-266.83584 279.42874,-249.83581 279.42874,-242.33582 C 279.42874,-233.33582 271.42872,-228.33581 254.42874,-227.83582 C 252.42874,-227.83582 246.92873,-227.33581 240.92874,-226.83582 L 240.92874,-217.33582 L 389.42874,-217.33582 L 389.42874,-226.83582 C 362.92876,-229.83581 355.42872,-234.83584 333.92874,-263.83582 L 237.92874,-400.83582 L 310.92874,-491.83582 C 343.42871,-530.83578 353.42877,-536.83582 385.42874,-538.83582 L 385.42874,-548.33582"
       id="text985" />
    <g
       id="g4189"
       transform="translate(1105.469,99.75693)">
      <defs
         id="defs550">
        <linearGradient
           id="linearGradient562">
          <stop
             style="stop-color:#de9500;stop-opacity:1;"
             offset="0.000000"
             id="stop563" />
          <stop
             style="stop-color:#ffff0f;stop-opacity:1;"
             offset="1.000000"
             id="stop564" />
        </linearGradient>
        <linearGradient
           id="linearGradient558">
          <stop
             style="stop-color:#000;stop-opacity:1;"
             offset="0"
             id="stop559" />
          <stop
             style="stop-color:#fff;stop-opacity:1;"
             offset="1"
             id="stop560" />
        </linearGradient>
        <linearGradient
           xlink:href="#linearGradient562"
           id="linearGradient561"
           x1="0.61486840"
           y1="0.53906602"
           x2="0.25000009"
           y2="0.32031256"
           gradientUnits="objectBoundingBox"
           spreadMethod="reflect" />
      </defs>
      <sodipodi:namedview
         id="namedview4198"
         inkscape:zoom="1.1172636"
         inkscape:cx="200.00002"
         inkscape:cy="199.99998"
         inkscape:window-width="827"
         inkscape:window-height="711"
         inkscape:window-x="0"
         inkscape:window-y="24" />
      <g
         id="g851">
        <path
           style="fill:#cca89d;fill-rule:evenodd;stroke:#000000;stroke-width:10.000000;stroke-linejoin:round;"
           d="M 99.878800,380.67600 L 76.014000,482.32200 L 175.74100,411.61200 C 175.74100,411.61200 167.05400,351.50800 99.878800,380.67600 z "
           id="path554"
           sodipodi:nodetypes="cccc" />
        <path
           style="fill:#c96400;fill-rule:evenodd;stroke:#000000;stroke-width:10.000000;stroke-linejoin:round;"
           d="M 100.76300,380.67600 L 325.26900,62.477600 C 325.26900,62.477600 346.48200,35.961100 370.34700,50.987100 C 377.41900,52.754900 375.65100,50.987200 389.79300,61.593700 C 393.32800,64.245400 395.09600,85.458600 395.09600,85.458600 C 395.09600,85.458600 174.12500,411.61200 174.12500,412.49600 C 174.12500,413.37900 170.58900,393.05000 151.14400,382.44300 C 133.46600,371.83700 101.64700,381.56000 100.76300,380.67600 z "
           id="path553"
           sodipodi:nodetypes="cccccccc" />
        <path
           style="fill-rule:evenodd;stroke:#000000;stroke-width:1.0000000pt;"
           d="M 75.130100,483.20600 L 83.085100,451.38600 C 83.085100,450.50200 93.691700,450.50200 97.227200,454.92200 C 100.76300,455.80600 101.64700,462.87700 101.64700,462.87700 L 75.130100,483.20600 z "
           id="path555"
           sodipodi:nodetypes="ccccc" />
        <path
           style="fill:#fc64e3;fill-rule:evenodd;stroke:#000000;stroke-width:10.000000;stroke-linejoin:round;"
           d="M 315.54700,74.852000 L 358.85700,22.702900 C 358.85700,22.702900 377.41800,3.2574500 395.98000,12.980200 C 414.54100,22.702900 405.70200,17.399500 414.54200,23.586700 C 422.49600,35.961200 411.89000,58.942100 411.00600,58.942100 C 410.12200,58.942100 374.76700,117.27900 374.76700,117.27900 C 374.76700,117.27900 383.60500,106.67200 368.57900,98.716900 C 351.78600,76.619800 314.66300,74.852000 315.54700,74.852000 z "
           id="path556"
           sodipodi:nodetypes="cccccccc" />
        <path
           style="fill:url(#linearGradient561);fill-rule:evenodd;stroke:#000000;stroke-width:10.000000;stroke-linejoin:round;"
           d="M 305.82400,87.226300 C 304.94000,87.226300 342.06300,39.496700 342.06300,39.496700 C 342.06300,39.496700 357.08900,37.728800 370.34700,41.264400 C 385.37400,47.451600 379.18600,43.032200 389.79300,50.987200 C 399.51500,58.942100 401.28300,77.503700 401.28300,77.503700 L 372.99900,121.69800 C 372.99900,121.69800 373.88300,112.85900 365.04400,103.13700 C 350.90200,91.645700 336.75900,89.878000 327.92100,86.342400 C 315.54600,84.574700 304.94000,88.110200 305.82400,87.226300 z "
           id="path557"
           sodipodi:nodetypes="ccccccccc" />
        <path
           style="fill:#ffffff;fill-rule:evenodd;stroke-width:1.0000000pt;"
           d="M 76.875000,481.74380 C 76.875000,480.49380 83.750000,454.24380 85.625000,454.24380 C 87.500000,454.24380 93.750000,455.49380 93.750000,457.36880 C 83.125000,463.61880 78.750000,479.86880 76.875000,481.74380 z "
           id="path566"
           sodipodi:nodetypes="cccc" />
        <path
           style="fill:#ffffff;fill-opacity:0.50370401;fill-rule:evenodd;stroke-width:1.0000000pt;"
           d="M 120.02744,365.52198 C 137.78254,337.48098 349.27360,35.824050 355.54050,31.669830 C 443.26890,-4.6795151 181.64854,278.28298 120.02744,365.52198 z "
           id="path564"
           sodipodi:nodetypes="ccc" />
        <path
           style="fill:#ffffff;fill-opacity:0.50196099;fill-rule:evenodd;stroke-width:1.0000000pt;"
           d="M 91.540315,448.81861 C 91.540315,446.27461 99.478205,403.57322 104.56480,389.15822 C 106.26080,389.15822 135.66700,376.16741 144.99400,391.43141 C 111.92600,396.51841 93.236215,442.03561 91.540315,448.81861 z "
           id="path565"
           sodipodi:nodetypes="cccc" />
        <path
           style="fill-opacity:0.24999996;fill-rule:evenodd;stroke-width:1.0000000pt;"
           d="M 394.28400,17.532200 C 394.28400,17.532200 413.78600,21.771900 413.78600,27.707300 C 418.87300,44.665700 409.54600,53.992800 403.61100,64.167900 C 405.30700,48.057400 408.69900,40.426200 394.28400,17.532200 z "
           id="path567"
           sodipodi:nodetypes="cccc" />
      </g>
      <rdf:RDF
         id="RDF4209">
        <cc:Work
           rdf:about=""
           id="Work4210">
          <dc:title
             id="title4211">Clipart by Nicu Buculei - book_01</dc:title>
          <dc:rights
             id="rights4213">
            <cc:Agent
               id="Agent4214">
              <dc:title
                 id="title4215">Nicu Buculei</dc:title>
            </cc:Agent>
          </dc:rights>
          <dc:type
             rdf:resource="http://purl.org/dc/dcmitype/StillImage"
             id="type4217" />
          <cc:license
             rdf:resource="http://web.resource.org/cc/PublicDomain"
             id="license4218" />
        </cc:Work>
        <cc:License
           rdf:about="http://web.resource.org/cc/PublicDomain"
           id="License4219">
          <cc:permits
             rdf:resource="http://web.resource.org/cc/Reproduction"
             id="permits4220" />
          <cc:permits
             rdf:resource="http://web.resource.org/cc/Distribution"
             id="permits4221" />
          <cc:permits
             rdf:resource="http://web.resource.org/cc/DerivativeWorks"
             id="permits4222" />
        </cc:License>
      </rdf:RDF>
    </g>
    <rect
       style="fill:url(#linearGradient4237);fill-opacity:1.0000000;fill-rule:evenodd;stroke:#000000;stroke-width:14.750000;stroke-linecap:butt;stroke-linejoin:round;stroke-miterlimit:4.0000000;stroke-opacity:1.0000000;"
       id="rect4223"
       width="252.44603"
       height="101.79275"
       x="991.48663"
       y="-13.088589"
       ry="22.394405"
       rx="22.394405" />
    <path
       style="fill:#000000;fill-opacity:1.0000000;fill-rule:evenodd;stroke:#000000;stroke-width:10.866710;stroke-linecap:butt;stroke-linejoin:miter;stroke-miterlimit:4.0000000;stroke-opacity:1.0000000;"
       d="M 1065.7953,-28.320940 L 1169.6238,-29.025070 L 1169.6238,14.247782 C 1165.1246,37.418161 1144.2962,36.789687 1116.5169,53.160393 C 1085.6256,35.587663 1070.2503,35.468955 1065.7953,12.948312 L 1065.7953,-28.320940 z "
       id="path4226"
       sodipodi:nodetypes="cccccc" />
  </g>
</svg>
