<?xml version="1.0" encoding="UTF-8" standalone="no"?>
<!DOCTYPE svg PUBLIC "-//W3C//DTD SVG 20010904//EN"
"http://www.w3.org/TR/2001/REC-SVG-20010904/DTD/svg10.dtd">
<!-- Created with Inkscape (http://www.inkscape.org/) -->
<svg
   id="svg1"
   sodipodi:version="0.32"
   inkscape:version="0.40cvs"
   width="210mm"
   height="297mm"
   sodipodi:docbase="/home/huftis/dokument"
   sodipodi:docname="kile.svg"
   xmlns="http://www.w3.org/2000/svg"
   xmlns:cc="http://web.resource.org/cc/"
   xmlns:inkscape="http://www.inkscape.org/namespaces/inkscape"
   xmlns:sodipodi="http://sodipodi.sourceforge.net/DTD/sodipodi-0.dtd"
   xmlns:rdf="http://www.w3.org/1999/02/22-rdf-syntax-ns#"
   xmlns:xml="http://www.w3.org/XML/1998/namespace"
   xmlns:dc="http://purl.org/dc/elements/1.1/"
   xmlns:xlink="http://www.w3.org/1999/xlink">
  <defs
     id="defs3">
    <linearGradient
       id="linearGradient2885">
      <stop
         style="stop-color:#ffffff;stop-opacity:1.0000000;"
         offset="0.0000000"
         id="stop2886" />
      <stop
         style="stop-color:#005dc0;stop-opacity:1.0000000;"
         offset="1.0000000"
         id="stop2887" />
    </linearGradient>
    <radialGradient
       inkscape:collect="always"
       xlink:href="#linearGradient2885"
       id="radialGradient2888"
       cx="0.46511629"
       cy="0.062500000"
       r="0.67441857"
       fx="0.46511632"
       fy="0.070312500" />
    <radialGradient
       inkscape:collect="always"
       xlink:href="#linearGradient2885"
       id="radialGradient2893"
       cx="0.41860464"
       cy="0.023437500"
       r="0.82174259"
       fx="0.41860464"
       fy="0.023437500" />
  </defs>
  <sodipodi:namedview
     id="base"
     pagecolor="#ffffff"
     bordercolor="#666666"
     borderopacity="1.0"
     inkscape:pageopacity="0.0"
     inkscape:pageshadow="2"
     inkscape:zoom="0.61399264"
     inkscape:cx="463.41630"
     inkscape:cy="413.24268"
     inkscape:window-width="1059"
     inkscape:window-height="709"
     inkscape:window-x="214"
     inkscape:window-y="0"
     inkscape:current-layer="svg1" />
  <metadata
     id="metadata4">
    <rdf:RDF
       id="RDF5">
      <cc:Work
         rdf:about=""
         id="Work6">
        <dc:format
           id="format7">image/svg+xml</dc:format>
        <dc:type
           id="type9"
           rdf:resource="http://purl.org/dc/dcmitype/StillImage" />
      </cc:Work>
    </rdf:RDF>
  </metadata>
  <g
     id="g2889"
     transform="translate(-777.6966,122.1513)"
     inkscape:export-xdpi="72.000000"
     inkscape:export-ydpi="72.000000">
    <path
       sodipodi:type="arc"
       style="fill:url(#radialGradient2893);fill-opacity:1.0;fill-rule:evenodd;stroke:#003c80;stroke-width:37.500000;stroke-linecap:butt;stroke-linejoin:miter;stroke-miterlimit:4.0000000;stroke-opacity:1.0000000;stroke-dasharray:none;"
       id="path967"
       sodipodi:cx="375.72696"
       sodipodi:cy="368.56790"
       sodipodi:rx="372.84784"
       sodipodi:ry="372.84784"
       d="M 748.57480 368.56790 A 372.84784 372.84784 0 1 0 2.8791199,368.56790 A 372.84784 372.84784 0 1 0 748.57480 368.56790 z"
       transform="translate(771.6078,37.42870)" />
    <path
       style="font-size:500.00000;font-style:normal;font-variant:normal;font-weight:bold;font-stretch:normal;fill:#ffffff;fill-opacity:1.0000000;stroke:none;stroke-width:1.0000000pt;stroke-linecap:butt;stroke-linejoin:miter;stroke-opacity:1.0000000;font-family:Futura Md BT;text-anchor:start;writing-mode:lr;"
       d="M 875.91374,584.27531 L 875.91374,218.52157 L 974.59730,218.52157 L 974.59730,384.65971 L 1090.2694,218.52157 L 1206.4412,218.52157 L 1071.2822,396.90146 L 1218.1833,584.27531 L 1093.7671,584.27531 L 974.59730,420.13582 L 974.59730,584.27531 L 875.91374,584.27531"
       id="text968" />
    <path
       style="font-size:72.000000;font-style:normal;font-variant:normal;font-weight:bold;font-stretch:normal;fill:#ffffff;fill-opacity:1.0000000;stroke:none;stroke-width:1.0000000pt;stroke-linecap:butt;stroke-linejoin:miter;stroke-opacity:1.0000000;font-family:Futura Md BT;text-anchor:start;writing-mode:lr;"
       d="M 1269.8626,584.27526 C 1263.2283,584.27526 1257.5768,582.17082 1252.9080,577.96133 C 1248.2396,573.67842 1245.9052,568.54604 1245.9051,562.56421 C 1245.9052,556.36119 1248.1986,551.19195 1252.7852,547.05618 C 1257.3721,542.84700 1263.0645,540.74257 1269.8626,540.74225 C 1276.6609,540.74257 1282.4353,542.88387 1287.1857,547.16709 C 1291.9363,551.37628 1294.3116,556.50896 1294.3115,562.56421 C 1294.3116,568.47200 1291.8954,573.56751 1287.0628,577.85073 C 1282.2305,582.13396 1276.4971,584.27526 1269.8626,584.27526 M 1432.6506,582.28142 L 1308.5631,582.28142 L 1308.5631,542.73609 L 1432.6506,542.73609 L 1432.6506,582.28142 M 1432.6506,511.38795 L 1242.2193,511.38795 L 1242.2193,471.84262 L 1432.6506,471.84262 L 1432.6506,511.38795 M 1354.6352,364.94881 C 1347.5914,365.68737 1341.9399,368.12421 1337.6807,372.25966 C 1333.4216,376.32139 1331.2921,381.34285 1331.2920,387.32437 C 1331.2921,393.74921 1333.2578,398.88158 1337.1892,402.72149 C 1341.0389,406.48798 1346.8542,408.99855 1354.6352,410.25415 L 1354.6352,364.94881 M 1379.3298,326.06800 L 1379.3298,411.14016 C 1388.9129,411.06644 1396.3254,408.85109 1401.5673,404.49382 C 1406.7274,400.13718 1409.3075,393.97071 1409.3074,385.99535 C 1409.3075,380.01352 1408.0788,374.99206 1405.6216,370.93033 C 1403.0826,366.79488 1405.1142,363.65635 1400.1998,361.51473 L 1407.7103,331.82801 C 1417.2114,335.37300 1424.5419,341.65007 1429.7020,350.65921 C 1434.8621,359.66867 1437.4421,370.70883 1437.4421,383.77970 C 1437.4421,403.27540 1431.4630,418.93120 1419.5047,430.74678 C 1407.4646,442.48831 1391.6158,448.35924 1371.9583,448.35924 C 1352.6286,448.35924 1336.5750,442.48831 1323.7976,430.74678 C 1311.0204,418.93120 1304.6317,404.01395 1304.6316,385.99535 C 1304.6317,367.45970 1311.1023,352.83769 1324.0433,342.12994 C 1336.9845,331.42219 1354.7172,326.06831 1377.2412,326.06800 L 1379.3298,326.06800"
       id="text1011"
       sodipodi:nodetypes="ccccccccccccccccccccccccccccccccccccccccc" />
  </g>
</svg>
